<svg xmlns="http://www.w3.org/2000/svg" width="423" height="383" viewBox="0 0 423 383">
<g>
<path d="M 198.00 136.38 C198.00,142.49 197.70,144.00 196.50,144.00 C195.32,144.00 195.00,142.62 195.00,137.62 C195.00,133.17 195.45,130.87 196.50,130.00 C197.81,128.91 198.00,129.72 198.00,136.38 Z" fill="rgb(118,117,197)"/>
<path d="M 251.50 249.42 C251.50,266.06 251.20,271.43 250.25,271.75 C249.56,271.98 249.00,271.72 249.00,271.17 C249.00,270.62 247.11,268.78 244.80,267.09 C239.85,263.45 235.31,263.09 228.83,265.84 C221.44,268.97 214.96,270.13 205.05,270.10 C177.75,270.01 152.89,252.86 143.19,227.42 C135.56,207.43 137.62,176.39 147.72,159.06 C153.20,149.66 165.60,138.73 175.13,134.91 C182.07,132.13 189.73,130.06 190.44,130.77 C190.75,131.08 191.00,134.87 191.00,139.20 L 191.00 147.06 L 185.52 153.51 C173.83,167.30 168.97,181.83 169.04,202.80 C169.08,217.47 170.53,224.26 175.91,235.00 C186.05,255.25 202.32,263.72 217.52,256.64 C224.29,253.49 237.08,239.76 240.16,232.34 L 242.41 226.91 L 246.95 227.20 L 251.50 227.50 Z" fill="rgb(8,65,241)"/>
<path d="M 251.50 226.08 L 251.50 227.50 L 246.95 227.20 L 242.41 226.91 L 242.36 227.01 C242.52,226.55 242.59,226.27 242.55,226.22 C242.01,225.67 191.23,226.17 181.82,226.83 L 172.56 227.47 C171.79,225.43 171.18,223.43 170.69,221.35 C171.82,224.88 173.46,224.57 179.62,221.50 C183.18,219.73 185.33,217.78 187.06,214.75 C189.48,210.53 189.50,210.31 189.75,179.50 L 189.99 148.50 L 185.78 153.21 L 191.00 147.06 L 191.00 139.20 C191.00,134.89 190.75,131.12 190.44,130.78 C190.66,130.83 190.84,130.90 190.99,130.99 C191.91,131.56 192.11,140.76 191.81,170.12 C191.42,207.95 191.39,208.57 189.07,213.30 C186.86,217.84 181.61,223.00 179.21,223.00 C178.61,223.00 177.83,223.46 177.49,224.02 C177.06,224.70 183.87,224.95 198.18,224.77 L 219.50 224.50 L 219.50 103.50 L 231.37 103.22 C241.62,102.97 243.81,103.21 247.43,104.96 C252.79,107.56 256.60,111.56 259.52,117.66 L 261.84 122.50 L 261.92 108.25 L 262.00 94.00 L 149.00 94.00 L 149.04 122.50 L 152.09 117.28 C155.40,111.60 163.31,104.00 165.89,104.01 C166.78,104.01 165.77,105.06 163.66,106.33 C159.18,109.05 154.18,115.05 151.55,120.88 C150.53,123.15 149.35,125.00 148.92,125.00 C148.14,125.00 147.19,97.94 147.86,94.75 C148.21,93.11 151.77,93.00 205.62,93.00 L 263.00 93.00 L 263.00 109.00 C263.00,117.80 262.61,125.00 262.14,125.00 C261.66,125.00 260.47,122.91 259.49,120.35 C257.32,114.64 251.93,108.52 246.79,105.90 C243.53,104.23 241.27,103.98 231.73,104.22 L 220.50 104.50 L 220.22 119.27 C219.97,132.69 220.11,134.09 221.72,134.60 C222.70,134.91 225.60,136.08 228.17,137.21 C235.25,140.33 241.98,139.40 246.86,134.64 C248.91,132.64 250.90,131.00 251.29,131.00 C251.68,131.00 252.00,144.95 252.00,162.00 C252.00,192.55 251.37,198.18 249.02,188.75 C248.43,186.41 247.51,183.72 246.98,182.76 C246.44,181.81 246.00,180.57 246.00,180.02 C246.00,177.25 238.32,162.92 234.34,158.26 C230.42,153.67 222.26,147.00 220.57,147.00 C219.80,147.00 219.85,187.44 220.64,203.00 L 221.28 215.50 L 231.89 215.21 C238.39,215.03 243.70,214.37 245.58,213.49 C249.87,211.51 257.41,203.18 259.94,197.64 C261.10,195.09 262.50,193.00 263.05,193.00 C263.69,193.00 263.95,198.90 263.77,209.25 L 263.50 225.50 ZM 245.62 176.24 C247.75,181.59 249.84,185.98 250.25,185.99 C250.66,185.99 251.00,173.99 251.00,159.31 L 251.00 132.63 L 248.25 135.19 C246.74,136.60 244.52,138.26 243.32,138.88 C239.94,140.61 232.65,140.21 227.50,138.00 C224.93,136.90 222.65,136.00 222.42,136.00 C222.19,136.00 222.00,138.24 222.00,140.97 C222.00,145.83 222.12,146.03 227.44,149.96 C234.61,155.25 240.84,164.27 245.62,176.24 ZM 222.69 224.35 C223.07,224.73 232.18,224.92 242.94,224.77 L 262.50 224.50 L 263.06 195.54 L 258.72 202.02 C256.33,205.58 252.16,210.19 249.44,212.24 L 244.50 215.99 L 222.00 216.00 L 222.00 219.83 C222.00,221.94 222.31,223.98 222.69,224.35 ZM 198.76 162.80 C198.57,205.31 198.20,220.43 197.34,220.72 C196.70,220.93 195.93,220.69 195.62,220.19 C195.31,219.69 194.76,193.40 194.41,161.77 C193.74,102.57 193.83,100.95 197.55,104.04 C198.81,105.09 198.98,113.28 198.76,162.80 ZM 196.00 182.00 C196.00,206.67 196.35,220.00 197.00,220.00 C197.65,220.00 198.00,206.67 198.00,182.00 C198.00,157.33 197.65,144.00 197.00,144.00 C196.35,144.00 196.00,157.33 196.00,182.00 ZM 195.46 128.75 C195.75,129.51 196.41,129.87 196.93,129.55 C198.22,128.75 197.80,104.43 196.50,104.75 C195.45,105.00 194.53,126.32 195.46,128.75 ZM 198.00 136.38 C198.00,129.72 197.81,128.91 196.50,130.00 C195.45,130.87 195.00,133.17 195.00,137.62 C195.00,142.62 195.32,144.00 196.50,144.00 C197.70,144.00 198.00,142.49 198.00,136.38 ZM 184.16 266.62 C190.80,268.86 197.84,270.08 205.05,270.10 C207.21,270.11 209.21,270.06 211.08,269.94 C203.35,270.60 195.38,270.03 188.86,268.14 C187.26,267.67 185.69,267.16 184.16,266.62 ZM 181.07 159.28 C177.14,165.14 173.84,172.22 171.66,179.52 C173.61,172.14 176.69,165.56 181.07,159.28 ZM 143.43 168.51 C139.00,181.11 137.52,197.16 139.34,211.39 C138.36,204.30 138.25,196.73 139.07,188.75 C139.86,181.09 141.26,174.44 143.43,168.51 ZM 168.55 258.97 C160.34,253.62 153.69,246.76 148.76,238.64 C153.84,246.81 160.64,253.72 168.55,258.97 ZM 189.07 130.68 C186.94,130.93 182.69,132.12 178.28,133.71 C182.59,131.97 186.63,130.78 189.07,130.68 ZM 178.68 240.00 C181.78,244.98 185.59,249.39 189.58,252.66 C185.60,249.51 181.91,245.27 178.68,240.00 ZM 240.32 231.95 L 240.16 232.34 C238.69,235.88 235.02,240.85 230.84,245.42 C226.69,250.00 222.07,254.12 218.55,256.11 C218.20,256.31 217.85,256.49 217.52,256.64 C217.85,256.49 218.20,256.31 218.55,256.11 C222.03,254.14 226.68,249.98 230.84,245.42 C234.82,241.03 238.36,236.22 240.07,232.50 C240.15,232.32 240.23,232.13 240.32,231.95 ZM 203.34 258.86 C208.04,259.43 212.96,258.72 217.32,256.74 C212.69,258.85 207.96,259.52 203.34,258.86 ZM 166.16 139.95 C162.51,142.52 158.85,145.65 155.64,148.96 C158.14,146.34 160.96,143.84 164.13,141.40 C164.76,140.92 165.44,140.43 166.16,139.95 ZM 169.04 201.16 C169.03,201.96 169.03,202.76 169.04,203.56 C169.04,203.31 169.04,203.05 169.04,202.80 C169.03,202.25 169.04,201.70 169.04,201.16 Z" fill="rgb(213,110,116)"/>
<path d="M 189.07 130.68 C188.67,130.70 188.23,130.74 187.75,130.81 C190.89,129.69 191.00,127.40 191.00,116.38 L 191.00 104.00 L 179.39 104.00 C169.47,104.00 167.32,104.28 164.06,106.09 C165.90,104.92 166.72,104.01 165.89,104.01 C163.31,104.00 155.40,111.60 152.09,117.28 L 149.04 122.50 L 149.00 94.00 L 262.00 94.00 L 261.92 108.25 L 261.84 122.50 L 259.52 117.66 C256.60,111.56 252.79,107.56 247.43,104.96 C243.81,103.21 241.62,102.97 231.37,103.22 L 219.50 103.50 L 219.50 224.50 L 198.18 224.77 C183.87,224.95 177.06,224.70 177.49,224.02 C177.83,223.46 178.61,223.00 179.21,223.00 C181.61,223.00 186.86,217.84 189.07,213.30 C191.39,208.57 191.42,207.95 191.81,170.12 C192.11,140.76 191.91,131.56 190.99,130.99 C190.84,130.90 190.66,130.83 190.44,130.78 C190.44,130.78 190.44,130.77 190.44,130.77 C190.28,130.62 189.80,130.59 189.07,130.68 ZM 245.62 176.24 C240.84,164.27 234.61,155.25 227.44,149.96 C222.12,146.03 222.00,145.83 222.00,140.97 C222.00,138.24 222.19,136.00 222.42,136.00 C222.65,136.00 224.93,136.90 227.50,138.00 C232.65,140.21 239.94,140.61 243.32,138.88 C244.52,138.26 246.74,136.60 248.25,135.19 L 251.00 132.63 L 251.00 159.31 C251.00,173.99 250.66,185.99 250.25,185.99 C249.84,185.98 247.75,181.59 245.62,176.24 ZM 222.69 224.35 C222.31,223.98 222.00,221.94 222.00,219.83 L 222.00 216.00 L 244.50 215.99 L 249.44 212.24 C252.16,210.19 256.33,205.58 258.72,202.02 L 263.06 195.54 L 262.50 224.50 L 242.94 224.77 C232.18,224.92 223.07,224.73 222.69,224.35 ZM 198.76 162.80 C198.98,113.28 198.81,105.09 197.55,104.04 C193.83,100.95 193.74,102.57 194.41,161.77 C194.76,193.40 195.31,219.69 195.62,220.19 C195.93,220.69 196.70,220.93 197.34,220.72 C198.20,220.43 198.57,205.31 198.76,162.80 ZM 159.38 145.34 C158.06,146.53 156.81,147.73 155.64,148.96 C152.42,152.27 149.64,155.76 147.72,159.06 C150.54,154.22 154.63,149.50 159.38,145.34 ZM 182.53 132.15 C181.18,132.59 179.74,133.12 178.28,133.71 C177.48,134.00 176.68,134.30 175.88,134.61 C178.11,133.61 180.33,132.78 182.53,132.15 ZM 151.10 121.84 C151.25,121.53 151.41,121.21 151.55,120.88 C152.43,118.95 153.56,117.00 154.84,115.15 C153.76,116.77 152.74,118.53 151.84,120.39 C151.59,120.90 151.35,121.38 151.10,121.84 ZM 147.83 110.53 C148.07,117.79 148.51,124.81 148.91,125.00 C148.90,125.00 148.89,125.00 148.88,125.00 C148.49,125.00 148.06,117.89 147.83,110.53 Z" fill="rgb(239,9,33)"/>
<path d="M 0.00 191.50 L 0.00 0.00 L 211.50 0.00 L 423.00 0.00 L 423.00 191.50 L 423.00 383.00 L 211.50 383.00 L 0.00 383.00 L 0.00 191.50 ZM 251.50 248.71 L 251.50 226.08 L 257.50 225.79 L 263.50 225.50 L 263.77 209.25 C263.95,198.90 263.69,193.00 263.05,193.00 C262.50,193.00 261.10,195.09 259.94,197.64 C257.41,203.18 249.87,211.51 245.58,213.49 C243.70,214.37 238.39,215.03 231.89,215.21 L 221.28 215.50 L 220.64 203.00 C219.85,187.44 219.80,147.00 220.57,147.00 C222.26,147.00 230.42,153.67 234.34,158.26 C238.32,162.92 246.00,177.25 246.00,180.02 C246.00,180.57 246.44,181.81 246.98,182.76 C247.51,183.72 248.43,186.41 249.02,188.75 C251.37,198.18 252.00,192.55 252.00,162.00 C252.00,144.95 251.68,131.00 251.29,131.00 C250.90,131.00 248.91,132.64 246.86,134.64 C241.98,139.40 235.25,140.33 228.17,137.21 C225.60,136.08 222.70,134.91 221.72,134.60 C220.11,134.09 219.97,132.69 220.22,119.27 L 220.50 104.50 L 231.73 104.22 C241.27,103.98 243.53,104.23 246.79,105.90 C251.93,108.52 257.32,114.64 259.49,120.35 C260.47,122.91 261.66,125.00 262.14,125.00 C262.61,125.00 263.00,117.80 263.00,109.00 L 263.00 93.00 L 205.62 93.00 C151.77,93.00 148.21,93.11 147.86,94.75 C147.21,97.82 148.12,125.00 148.88,125.00 C149.28,125.00 150.61,122.93 151.84,120.39 C154.99,113.92 159.42,108.69 163.92,106.16 C167.26,104.29 169.33,104.00 179.39,104.00 L 191.00 104.00 L 191.00 116.38 C191.00,129.83 190.83,130.27 185.20,131.48 C171.28,134.45 155.14,146.34 147.72,159.06 C137.62,176.39 135.56,207.43 143.19,227.42 C152.89,252.86 177.75,270.01 205.05,270.10 C214.96,270.13 221.44,268.97 228.83,265.84 C235.31,263.09 239.85,263.45 244.80,267.09 C247.11,268.78 249.00,270.62 249.00,271.17 C249.00,271.72 249.56,271.98 250.25,271.75 C251.20,271.43 251.50,265.92 251.50,248.71 ZM 195.45 256.53 C188.30,252.97 180.84,244.84 176.15,235.50 L 172.13 227.50 L 181.82 226.83 C191.23,226.17 242.01,225.67 242.55,226.22 C242.69,226.38 241.58,229.20 240.07,232.50 C236.41,240.50 224.25,253.51 217.50,256.65 C210.54,259.89 202.09,259.85 195.45,256.53 ZM 170.08 218.95 C168.69,212.44 168.69,192.63 170.08,185.80 C172.54,173.74 178.42,161.45 185.52,153.50 L 189.99 148.50 L 189.75 179.50 C189.50,210.31 189.48,210.53 187.06,214.75 C185.33,217.78 183.18,219.73 179.62,221.50 C172.31,225.15 171.36,224.89 170.08,218.95 ZM 196.00 182.00 C196.00,157.33 196.35,144.00 197.00,144.00 C197.65,144.00 198.00,157.33 198.00,182.00 C198.00,206.67 197.65,220.00 197.00,220.00 C196.35,220.00 196.00,206.67 196.00,182.00 ZM 195.46 128.75 C194.53,126.32 195.45,105.00 196.50,104.75 C197.80,104.43 198.22,128.75 196.93,129.55 C196.41,129.87 195.75,129.51 195.46,128.75 Z" fill="rgb(254,254,254)"/>
</g>
</svg>